<svg width="32" height="32" viewBox="0 0 32 32" stroke-width="0" xmlns="http://www.w3.org/2000/svg">
<path fill-rule="evenodd" clip-rule="evenodd" d="M3.92424 14.3319C11.4379 10.9449 16.4483 8.71196 18.9551 7.63321C26.1129 4.553 27.6002 4.01789 28.5696 4.00019C28.7828 3.99633 29.2595 4.05102 29.5683 4.31029C30.0264 4.69487 30.029 5.52966 29.9782 6.08216C29.5903 10.2988 27.9119 20.5314 27.0581 25.2541C26.6967 27.2525 25.9853 27.9226 25.2967 27.9881C23.7999 28.1306 22.6634 26.9647 21.2137 25.9815C18.9452 24.443 17.6637 23.4853 15.4617 21.984C12.917 20.249 14.5667 19.2955 16.0169 17.7371C16.3964 17.3293 22.9911 11.1231 23.1187 10.5601C23.1348 10.4897 23.1495 10.2272 22.9988 10.0886C22.8481 9.95008 22.6257 9.99737 22.4652 10.0351C22.2377 10.0885 18.6138 12.5667 11.5936 17.4697C10.5649 18.2005 9.63322 18.5565 8.79848 18.5379C7.87816 18.5174 6.108 17.9996 4.79201 17.557C3.1779 17.0141 1.89503 16.7271 2.00679 15.8052C2.06498 15.3249 2.7041 14.8338 3.92424 14.3319Z"/>
</svg>
