<svg width="158" height="87" viewBox="0 0 158 87" xmlns="http://www.w3.org/2000/svg">
<path fill-rule="evenodd" clip-rule="evenodd" d="M74.6718 0L74.305 0.330175C71.1021 3.21338 68.9457 9.83959 68.364 17.674C67.7637 25.7587 68.9924 33.9886 71.6794 39.3441L74.7351 45.4342C77.7361 51.4158 79.2092 60.5886 78.5389 69.6189C78.0085 76.7612 76.1691 82.9639 73.6201 87H68.2935L68.7397 86.5983C71.9427 83.7151 74.0991 77.0892 74.6808 69.2545C75.2811 61.1698 74.0524 52.9398 71.3657 47.5847L68.3099 41.4943C65.3087 35.5127 63.8356 26.3399 64.5059 17.3093C65.0333 10.2093 66.8544 4.03755 69.3798 0H74.6718ZM112.3 67.1797L128.027 4.39157H132.049L121.715 45.6606L132.256 82.6463H128.182L119.814 53.277L112.455 82.6463H108.42V4.39157H112.3V67.1797ZM86.1032 49.5422V82.6438H82.2233V45.1562H98.4154C102.218 45.1562 105.309 48.6459 105.309 52.9457V82.6438H101.429V52.9457C101.429 51.0671 100.071 49.5422 98.4154 49.5422H86.1032ZM0 82.6438V11.9244C0 7.62599 3.08753 4.13602 6.89055 4.13602H12.3253C14.2675 4.13602 16.0231 5.04631 17.2759 6.50951C18.5287 5.04631 20.2843 4.13602 22.2265 4.13602H27.661C31.4638 4.13602 34.5513 7.62599 34.5513 11.9244V82.6438H30.6713V11.9244C30.6713 10.0463 29.3225 8.5217 27.661 8.5217H22.2265C20.5647 8.5217 19.2159 10.0463 19.2159 11.9244V82.6438H15.3359V11.9244C15.3359 10.0463 13.9868 8.5217 12.3253 8.5217H6.89055C5.22903 8.5217 3.87995 10.0463 3.87995 11.9244V82.6438H0ZM158 12.1789C158 7.88155 154.909 4.39073 151.107 4.39073H141.2C137.398 4.39073 134.319 7.88155 134.319 12.1789V74.854C134.319 79.1544 137.398 82.6421 141.2 82.6421H151.107C154.909 82.6421 158 79.1544 158 74.854V12.1789ZM47.029 55.5285H61.4107V59.9142H47.029V74.8108C47.029 76.6818 48.3741 78.2023 50.0426 78.2023H57.5955C59.2508 78.2023 60.6088 76.6818 60.6088 74.8108V67.3404H64.4888V74.8108C64.4888 79.1086 61.3978 82.588 57.5955 82.588H50.0426C46.2403 82.588 43.1493 79.1086 43.1493 74.8108V59.9142H37.6527V55.5285H43.1493V45.1638H47.029V55.5285ZM154.12 12.1789V74.854C154.12 76.7337 152.762 78.257 151.107 78.257H141.2C139.545 78.257 138.199 76.7337 138.199 74.854V12.1789C138.199 10.3019 139.545 8.77585 141.2 8.77585H151.107C152.762 8.77585 154.12 10.3019 154.12 12.1789ZM82.5921 31.4827V34.0658C82.5921 35.9444 83.9372 37.4693 85.6054 37.4693H95.9002C97.5557 37.4693 98.9137 35.9444 98.9137 34.0658V28.1235H102.794V34.0658C102.794 38.3645 99.7027 41.8553 95.9002 41.8553H85.6054C81.8031 41.8553 78.7121 38.3645 78.7121 34.0658V12.182C78.7121 7.88211 81.8031 4.39241 85.6054 4.39241H98.4221C102.238 4.39241 105.316 7.88211 105.316 12.182V20.4593L82.5921 31.4827ZM61.3598 12.1803C61.3598 7.88043 58.2688 4.39073 54.4665 4.39073H44.5596C40.7574 4.39073 37.6793 7.88043 37.6793 12.1803V34.0641C37.6793 38.3625 40.7574 41.8536 44.5596 41.8536H54.4665C58.2688 41.8536 61.3598 38.3625 61.3598 34.0641V12.1803ZM57.4798 12.1803V34.0641C57.4798 35.9427 56.1218 37.4677 54.4665 37.4677H44.5596C42.9043 37.4677 41.5592 35.9427 41.5592 34.0641V12.1803C41.5592 10.3016 42.9043 8.77669 44.5596 8.77669H54.4665C56.1218 8.77669 57.4798 10.3016 57.4798 12.1803ZM101.436 17.5893V12.182C101.436 10.3033 100.091 8.77838 98.4221 8.77838H85.6054C83.9372 8.77838 82.5921 10.3033 82.5921 12.182V26.6964L101.436 17.5893Z"/>
</svg>
